<?xml version="1.0" encoding="UTF-8" standalone="no"?>
<svg
   id="Layer_1"
   style="enable-background:new 0 0 64 64;"
   version="1.1"
   viewBox="0 0 64 64"
   xml:space="preserve"
   sodipodi:docname="fbchat.svg"
   inkscape:version="1.3 (0e150ed6c4, 2023-07-21)"
   xmlns:inkscape="http://www.inkscape.org/namespaces/inkscape"
   xmlns:sodipodi="http://sodipodi.sourceforge.net/DTD/sodipodi-0.dtd"
   xmlns="http://www.w3.org/2000/svg"
   xmlns:svg="http://www.w3.org/2000/svg"><defs
     id="defs7"><rect
       x="-103.03721"
       y="33.505626"
       width="51.44448"
       height="49.813675"
       id="rect10" /></defs><sodipodi:namedview
     id="namedview7"
     pagecolor="#505050"
     bordercolor="#eeeeee"
     borderopacity="1"
     inkscape:showpageshadow="0"
     inkscape:pageopacity="0"
     inkscape:pagecheckerboard="0"
     inkscape:deskcolor="#505050"
     inkscape:zoom="6.7451358"
     inkscape:cx="73.31209"
     inkscape:cy="68.716185"
     inkscape:window-width="3440"
     inkscape:window-height="1417"
     inkscape:window-x="1912"
     inkscape:window-y="-8"
     inkscape:window-maximized="1"
     inkscape:current-layer="Layer_1" /><style
     type="text/css"
     id="style1">&#10;	.st0{fill:#FF768F;}&#10;	.st1{fill:#D3A6FF;}&#10;	.st2{fill:#57CEF3;}&#10;	.st3{fill:#0779E4;}&#10;	.st4{fill:#9C35FF;}&#10;	.st5{fill:#393E46;}&#10;	.st6{fill:#FFFFFF;}&#10;</style><g
     id="Messenger"><path
       class="st0"
       d="M19,4.9c16.2,7.4,30.7,17.9,42.6,30.8c0.3-1.5,0.4-3.1,0.4-4.7C62,15,48.6,2,32,2C27.3,2,22.9,3,19,4.9z"
       id="path1" /><path
       class="st1"
       d="M50.8,53.6c6-4.6,10.1-11.5,11-19.2C50.1,21.9,36,11.6,20.2,4.3c-7.3,3-13.2,8.8-16.1,16   C22.4,27.3,38.4,38.8,50.8,53.6z"
       id="path2" /><path
       class="st2"
       d="M4.5,19.4C23,26.4,39.1,38.1,51.6,53c-5.3,4.4-12.1,7-19.6,7C15.4,60,2,47,2,31C2,26.9,2.9,23,4.5,19.4z"
       id="path3" /><path
       class="st3"
       d="M6.7,19.5C5,23,4,26.9,4,31c0,14.8,12.5,19,28,19c6.2,0,11.9-0.7,16.5-2.4l5.2,6.2C48,58.9,40.4,62,32,62   c-3.1,0-6.2-0.4-9-1.3l-5.7,2.9c-0.5,0.3-1.1,0.4-1.6,0.4c-2,0-3.6-1.6-3.6-3.6v-5.2C4.7,49.5,0,40.8,0,31c0-4.8,1.1-9.4,3.2-13.5   L6.7,19.5z"
       id="path4" /><path
       class="st4"
       d="M2.6,18.7c3.2-7.1,9.1-12.9,16.4-16C23,1,27.4,1,32,1v2c-3.2,0-6.2,1.5-9,2.4C15.5,7.9,9.5,13.3,6.4,20.1   C5.1,19.6,3.9,19.2,2.6,18.7z M47.2,48.1c2,2.1,3.8,4.2,5.6,6.5C59.7,48.9,64,40.4,64,31h-4C60,40.5,54.9,45.6,47.2,48.1z"
       id="path5" /><path
       class="st5"
       d="M22.7,5.5c3.6-1.2,7.5-1.7,11.3-1.4c7.4,0.5,14.3,3.9,19.2,9.3c4.8,5.4,7.2,12.5,6.7,19.6   c-0.5,7.1-4,13.8-9.6,18.4l2.6,3.1c6.4-5.4,10.4-13,11-21.2c0.6-8.2-2.1-16.3-7.7-22.6c-5.5-6.2-13.4-10-21.9-10.6   c-5.8-0.4-11.5,0.7-16.6,3.1C19.4,4,21.1,4.7,22.7,5.5z"
       id="path6" /><path
       id="text10"
       style="white-space:pre;shape-inside:url(#rect10);fill:#f9f9f9;fill-opacity:1;stroke-width:4.57849"
       d="m 22.816772,13.301344 c -0.669143,0 -1.35677,0.01128 -2.062198,0.03434 -0.871399,0.01537 -1.441434,0.145537 -1.711152,0.391429 -0.269717,0.245892 -0.363787,0.699852 -0.280818,1.360688 0.02075,0.15368 0.06224,0.338143 0.124503,0.553296 0.165982,0.706942 0.612837,2.54338 1.339033,5.509451 0.539435,2.259131 0.984967,4.095573 1.337701,5.509453 0.394219,1.644399 1.0998,4.579436 2.116477,8.805698 0.892121,3.719114 1.597754,6.655131 2.116423,8.806686 0.103791,0.353467 0.238009,0.775704 0.403994,1.267488 0.207466,0.630092 0.747063,0.952907 1.618469,0.968272 h 3.548194 v -0.02356 h 3.765392 c 0.85067,-0.03074 1.380535,-0.368913 1.588013,-1.014387 0.228231,-0.706937 0.403967,-1.313632 0.528453,-1.820785 2.655754,-10.7885 4.823768,-19.586416 6.504361,-26.394542 0.269724,-1.091144 0.446788,-2.013454 0.529781,-2.766499 0.08299,-0.722304 -0.352817,-1.099407 -1.307231,-1.130143 -1.431617,-0.03073 -3.112603,-0.02255 -5.042167,0.02355 -0.829924,0.01537 -1.337709,0.360741 -1.52444,1.036944 -0.269723,0.983568 -0.456504,1.714218 -0.560243,2.190633 -0.311222,1.41388 -0.830045,3.803705 -1.556224,7.169349 -0.663937,3.073646 -1.193798,5.463475 -1.588013,7.169349 -0.103737,0.50715 -0.28919,1.182531 -0.558909,2.027782 -0.103736,0.322733 -0.332022,0.469256 -0.68476,0.438523 -0.269719,-0.03074 -0.44675,-0.138342 -0.52977,-0.322761 -0.331968,-0.691569 -0.53949,-1.229586 -0.622508,-1.613791 -0.331969,-1.613665 -0.788494,-3.764736 -1.369466,-6.454176 -0.663939,-3.22733 -1.109468,-5.371209 -1.337704,-6.431617 -0.331969,-1.521453 -0.643223,-2.866978 -0.93371,-4.034965 -0.124501,-0.445678 -0.311254,-0.753114 -0.560258,-0.922166 -0.269718,-0.169052 -0.716576,-0.268479 -1.338978,-0.299213 -0.632866,-0.02305 -1.283154,-0.03434 -1.952245,-0.03434 z" /></g></svg>
